Coordinates
version=1
nRows=10
nColumns=40
inDegrees=yes

Units are S.I. units (second, meters, Newtons, ...)
Angles are in degrees.

endheader
time	pelvis_tilt	pelvis_list	pelvis_rotation	pelvis_tx	pelvis_ty	pelvis_tz	hip_flexion_r	hip_adduction_r	hip_rotation_r	knee_angle_r	knee_angle_r_beta	ankle_angle_r	subtalar_angle_r	mtp_angle_r	hip_flexion_l	hip_adduction_l	hip_rotation_l	knee_angle_l	knee_angle_l_beta	ankle_angle_l	subtalar_angle_l	mtp_angle_l	lumbar_extension	lumbar_bending	lumbar_rotation	arm_flex_r	arm_add_r	arm_rot_r	elbow_flex_r	pro_sup_r	wrist_flex_r	wrist_dev_r	arm_flex_l	arm_add_l	arm_rot_l	elbow_flex_l	pro_sup_l	wrist_flex_l	wrist_dev_l
      0.00000000	     -4.78297929	      0.83299700	     -1.54698823	     -1.10386160	      0.88208078	      1.50712691	      4.50408113	     -0.72830842	    -17.35147252	    -23.19913692	     -0.40490132	     13.64359332	     -1.63909872	     -2.07074278	     31.93079296	      4.93811167	     16.61447255	    -25.71905381	     -0.44888217	      4.33215546	     10.40985396	     -0.10310614	     -4.38145322	      0.78909057	     -0.81254710	      6.23260596	    -10.29571611	    -14.22616322	     35.02692008	     89.95437384	      0.00000000	      0.00000000	     -3.60945857	      8.48807941	     17.65711104	     24.18163837	     89.95437384	      0.00000000	      0.00000000
      0.01000000	     -4.91564117	      0.73250639	     -1.40335823	     -1.09901281	      0.88151097	      1.50642581	      4.38214073	     -0.69006830	    -17.34769733	    -23.39047194	     -0.40824075	     13.66859729	     -1.71592122	     -2.05246779	     32.25463730	      5.02158035	     16.79723016	    -24.99038031	     -0.43616442	      4.43213481	     10.09247968	     -0.10339264	     -4.28067336	      0.85468956	     -0.82116693	      6.36045680	    -10.23322387	    -14.13610928	     35.03295530	     89.95437384	      0.00000000	      0.00000000	     -3.65519812	      8.45877650	     17.59478826	     24.00756149	     89.95437384	      0.00000000	      0.00000000
      0.02000000	     -5.04114942	      0.73519532	     -1.34707318	     -1.09408262	      0.88101066	      1.50577925	      4.29928463	     -0.76400548	    -17.24100962	    -23.62941715	     -0.41241113	     13.68734568	     -1.82352861	     -2.02891987	     32.40938042	      4.99884659	     16.89255466	    -24.12889127	     -0.42112860	      4.47187539	      9.35216689	     -0.15429354	     -4.16190502	      0.78492910	     -0.78186855	      6.50902392	    -10.13000343	    -14.00436342	     34.97649672	     89.95437384	      0.00000000	      0.00000000	     -3.71753639	      8.44285636	     17.58472351	     23.85201252	     89.95437384	      0.00000000	      0.00000000
      0.03000000	     -5.14238447	      0.65029809	     -1.22451489	     -1.08894102	      0.88048662	      1.50485323	      4.12236353	     -0.77194556	    -17.24865684	    -23.81667770	     -0.41567944	     13.65342177	     -1.89324316	     -2.00984895	     32.66804896	      5.07497492	     17.16520230	    -23.66502408	     -0.41303259	      4.49471645	      9.02888540	     -0.16182625	     -4.03887284	      0.81899260	     -0.80376111	      6.59139222	    -10.07006414	    -13.96552420	     34.96474343	     89.95437384	      0.00000000	      0.00000000	     -3.81564475	      8.40605304	     17.49161491	     23.72248572	     89.95437384	      0.00000000	      0.00000000
      0.04000000	     -5.04202851	      0.74703759	     -1.24092057	     -1.08332166	      0.88039319	      1.50420991	      3.72260965	     -0.96444829	    -17.02370624	    -24.06109181	     -0.41994527	     13.54025988	     -1.89105481	     -1.96588956	     32.42158950	      5.01739843	     17.46489380	    -22.93620332	     -0.40031227	      4.35098925	      7.80305547	     -0.29587174	     -4.13716325	      0.63221939	     -0.73569705	      6.74687381	     -9.91759337	    -13.91599048	     34.77091125	     89.95437384	      0.00000000	      0.00000000	     -3.82444467	      8.41482864	     17.45366787	     23.44387530	     89.95437384	      0.00000000	      0.00000000
      0.05000000	     -5.14049909	      0.61597397	     -1.20255068	     -1.07791733	      0.87987903	      1.50340593	      3.50130927	     -0.92919491	    -17.09657854	    -24.18314695	     -0.42207554	     13.51660158	     -1.90203329	     -1.95271986	     32.61413476	      5.16742345	     17.58536085	    -22.72776931	     -0.39667441	      4.51144835	      7.62558329	     -0.32151429	     -3.98828337	      0.68320085	     -0.66032117	      6.74678303	     -9.84909139	    -13.87287757	     34.74636743	     89.95437384	      0.00000000	      0.00000000	     -3.92047927	      8.37483713	     17.35411342	     23.40911067	     89.95437384	      0.00000000	      0.00000000
      0.06000000	     -5.22869667	      0.52426424	     -1.17418791	     -1.07220385	      0.87936789	      1.50260694	      3.26126560	     -0.92766427	    -17.08038991	    -24.33321535	     -0.42469473	     13.41025689	     -1.88958099	     -1.93484502	     32.74792223	      5.26112184	     17.55574688	    -22.63685886	     -0.39508772	      4.63769032	      7.41820506	     -0.34849358	     -3.83605811	      0.69356039	     -0.63575654	      6.72287914	     -9.73942235	    -13.79443784	     34.70951144	     89.95437384	      0.00000000	      0.00000000	     -4.06166903	      8.36577401	     17.23907748	     23.34030704	     89.95437384	      0.00000000	      0.00000000
      0.07000000	     -4.96760135	      0.37830926	     -1.09940008	     -1.06598113	      0.87944641	      1.50172727	      2.41504841	     -0.82188845	    -17.02351542	    -24.11069528	     -0.42081102	     13.24038856	     -1.76563502	     -1.89691533	     32.40441370	      5.35790224	     17.37233294	    -22.58902684	     -0.39425289	      4.98337091	      6.86638293	     -0.55242501	     -4.03424528	      0.75382217	     -0.57992780	      6.77361867	     -9.62155989	    -13.87329132	     34.44629671	     89.95437384	      0.00000000	      0.00000000	     -4.04611796	      8.41804655	     16.76608924	     23.08510549	     89.95437384	      0.00000000	      0.00000000
      0.08000000	     -5.10441376	      0.27556302	     -1.17263415	     -1.05991934	      0.87881973	      1.50093743	      2.17584573	     -0.83367319	    -17.09613345	    -24.20530736	     -0.42246231	     13.16332150	     -1.75301042	     -1.88282546	     32.49336670	      5.48350586	     17.26377478	    -22.66759332	     -0.39562414	      4.98482983	      6.82100597	     -0.55408693	     -3.78704101	      0.77071726	     -0.45816194	      6.67300783	     -9.53079415	    -13.76822529	     34.38126682	     89.95437384	      0.00000000	      0.00000000	     -4.18435582	      8.39602710	     16.68385035	     23.04742361	     89.95437384	      0.00000000	      0.00000000
      0.09000000	     -5.21436994	      0.23434439	     -1.19572496	     -1.05372068	      0.87809211	      1.49988541	      1.97736520	     -0.91552369	    -16.94461350	    -24.47426962	     -0.42715659	     12.94147947	     -1.71447271	     -1.85657233	     32.56546451	      5.48234554	     16.97284972	    -22.90037337	     -0.39968692	      4.88760777	      6.69099504	     -0.54389911	     -3.55985433	      0.71330097	     -0.37835377	      6.46511001	     -9.45519653	    -13.68241076	     34.43452019	     89.95437384	      0.00000000	      0.00000000	     -4.39649713	      8.37637645	     16.60116182	     23.16439811	     89.95437384	      0.00000000	      0.00000000
